<svg xmlns="http://www.w3.org/2000/svg" xmlns:xlink="http://www.w3.org/1999/xlink" version="1.1" x="0px" y="0px" viewBox="0 0 66 82.5" enable-background="new 0 0 66 66" xml:space="preserve"><g><path d="M18.1241,30.4191c0.5527,0,1-0.4478,1-1s-0.4473-1-1-1c-2.623,0-4.7568-2.1338-4.7568-4.7568   c0-2.4102,1.7988-4.439,4.1855-4.7202c0.2881-0.0342,0.5469-0.1909,0.71-0.4307s0.2139-0.5386,0.1396-0.8184   c-1.5498-5.8492,2.8286-11.4912,8.79-11.4912c3.4453,0,6.5566,1.9063,8.1211,4.9746c0.2227,0.438,0.7324,0.6479,1.1992,0.4971   c2.7268-0.8849,5.6976,0.8872,6.1523,3.7983c0.0732,0.4668,0.4629,0.8188,0.9346,0.8442c3.2119,0.1738,5.7285,2.8306,5.7285,6.0488   c0,3.3384-2.7158,6.0542-6.0547,6.0542c-0.5527,0-1,0.4478-1,1s0.4473,1,1,1c4.4414,0,8.0547-3.6133,8.0547-8.0542   c0-4.0205-2.9531-7.3823-6.8525-7.9678c-0.9508-3.4197-4.3802-5.4805-7.7715-4.8335c-2.0058-3.3271-5.581-5.3618-9.5117-5.3618   c-6.905,0-12.0874,6.2147-10.9473,12.9692c-2.8447,0.8169-4.8779,3.4395-4.8779,6.4912   C11.3673,27.3878,14.3985,30.4191,18.1241,30.4191z"/><path d="M45.8682,2.9923c4.5764,0.5496,7.5193,4.6318,6.5938,9.1494c-0.1113,0.541,0.2373,1.0693,0.7783,1.1802   c0.5366,0.1111,1.0695-0.2344,1.1807-0.7788c1.1616-5.6619-2.574-10.8479-8.3145-11.5361   c-0.5469-0.0625-1.0459,0.3262-1.1123,0.8735C44.9288,2.4289,45.3204,2.9269,45.8682,2.9923z"/><path d="M45.1788,6.3463c2.7015,0.3242,4.4305,2.7227,3.8828,5.3882c-0.1113,0.541,0.2373,1.0693,0.7783,1.1807   c0.5284,0.1111,1.0683-0.2285,1.1807-0.7783c0.7839-3.8115-1.739-7.313-5.6035-7.7759c-0.5635-0.0669-1.0459,0.3262-1.1123,0.8735   C44.2393,5.7829,44.6309,6.2809,45.1788,6.3463z"/><path d="M44.4893,9.7008c0.8303,0.0981,1.3397,0.8141,1.1729,1.6265c-0.1113,0.541,0.2373,1.0698,0.7783,1.1807   c0.5317,0.1101,1.0686-0.23,1.1807-0.7783c0.4039-1.9631-0.9023-3.7766-2.8936-4.0151c-0.5596-0.0571-1.0469,0.3262-1.1123,0.8745   S43.9415,9.6349,44.4893,9.7008z"/><path d="M17.7296,48.1881c0,0.5522,0.4473,1,1,1s1-0.4478,1-1c0-1.7502-1.1937-3.2129-2.8047-3.6553V38.904   c0.9453-0.3162,1.6868-1.0579,2.003-2.0034h2.3095v11.23c0,0.5522,0.4473,1,1,1h2.6992v3.0181   c-1.2615,0.4221-2.1797,1.6016-2.1797,3.0039c0,1.4019,0.9182,2.5814,2.1797,3.0034v2.189   c-1.611,0.4424-2.8047,1.905-2.8047,3.6548c0,0.5522,0.4472,1,1,1c0.5527,0,1-0.4478,1-1c0-0.9956,0.8096-1.8052,1.8047-1.8052   c0.9961,0,1.8057,0.8096,1.8057,1.8052c0,0.5522,0.4473,1,1,1s1-0.4478,1-1c0-1.75-1.194-3.2126-2.8057-3.655V58.156   c1.2624-0.4218,2.1807-1.6014,2.1807-3.0035c0-1.4025-0.9183-2.5822-2.1807-3.004v-3.0179h7.3525v3.0188   c-1.2609,0.4229-2.1777,1.6018-2.1777,3.0032c0,1.401,0.9169,2.5798,2.1777,3.0027v2.1904   c-1.6102,0.4434-2.8027,1.9053-2.8027,3.6541c0,0.5522,0.4473,1,1,1c0.5527,0,1-0.4478,1-1c0-0.9956,0.8096-1.8052,1.8057-1.8052   c0.9951,0,1.8047,0.8096,1.8047,1.8052c0,0.5522,0.4473,1,1,1s1-0.4478,1-1c0-1.7509-1.1951-3.2144-2.8076-3.6558v-2.1871   c1.2631-0.4211,2.1826-1.6012,2.1826-3.0043c0-1.4033-0.9195-2.5836-2.1826-3.0048v-3.0172h2.0068c0.5527,0,1-0.4478,1-1V36.8971   h2.3085c0.3155,0.9473,1.0576,1.6902,2.004,2.0068v5.6287c-1.6117,0.4424-2.8057,1.9052-2.8057,3.6555c0,0.5522,0.4473,1,1,1   s1-0.4478,1-1c0-0.9917,0.8036-1.7982,1.7944-1.8044c0.004,0,0.0073,0.0022,0.0113,0.0022s0.0073-0.0022,0.0113-0.0022   c0.9908,0.0062,1.7944,0.8127,1.7944,1.8044c0,0.5522,0.4473,1,1,1s1-0.4478,1-1c0-1.7504-1.194-3.2131-2.8057-3.6555v-5.6285   c1.2624-0.4218,2.1807-1.6014,2.1807-3.0035c0-1.7534-1.4268-3.1802-3.1807-3.1802c-1.4003,0-2.579,0.9165-3.0019,2.1768H39.296   v-1.1768c0-0.5522-0.4473-1-1-1h-4.8193v-2.9321h1.8691c0.9277,0,1.6826-0.7544,1.6826-1.6821v-6.6069   c0-0.9277-0.7549-1.6826-1.6826-1.6826H25.1866c-0.9277,0-1.6816,0.7549-1.6816,1.6826v6.6069   c0,0.9277,0.7539,1.6821,1.6816,1.6821h1.8643v2.9321h-4.8135c-0.5527,0-1,0.4478-1,1v1.1802h-2.3095   c-0.4219-1.262-1.6014-2.1802-3.003-2.1802c-1.7539,0-3.1807,1.4268-3.1807,3.1802c0,1.4021,0.9183,2.5817,2.1807,3.0035v5.6285   c-1.6117,0.4424-2.8057,1.9052-2.8057,3.6555c0,0.5522,0.4473,1,1,1s1-0.4478,1-1c0-0.9917,0.8036-1.7982,1.7944-1.8044   c0.004,0,0.0073,0.0022,0.0113,0.0022s0.0073-0.0022,0.0113-0.0022C16.926,46.39,17.7296,47.1964,17.7296,48.1881z    M43.4296,35.8966c0.0023-0.649,0.5299-1.1763,1.1788-1.1763c0.6514,0,1.1807,0.5293,1.1807,1.1802s-0.5293,1.1802-1.1807,1.1802   c-0.6501,0-1.1792-0.5289-1.1796-1.1794c0-0.0015,0.0009-0.0027,0.0009-0.0042L43.4296,35.8966z M27.1173,55.1525   c0,0.647-0.5237,1.1719-1.1698,1.178c-0.0038,0-0.007-0.0022-0.0109-0.0022s-0.007,0.0022-0.0109,0.0022   c-0.6451-0.0061-1.1688-0.531-1.1688-1.178c0-0.6509,0.5293-1.1807,1.1797-1.1807C26.588,53.9718,27.1173,54.5016,27.1173,55.1525z    M36.4718,55.1525c0,0.6475-0.5246,1.1729-1.1703,1.1782c-0.0043,0-0.0079-0.0024-0.0123-0.0024   c-0.0034,0-0.006,0.0018-0.0094,0.002c-0.6453-0.0071-1.1683-0.5313-1.1683-1.1777c0-0.6509,0.5293-1.1807,1.1807-1.1807   C35.9425,53.9718,36.4718,54.5016,36.4718,55.1525z M25.505,27.7882v-5.9717h9.5234v5.9717H25.505z M31.4766,29.7882v2.9321   h-2.4258v-2.9321H31.4766z M23.2374,34.7204H37.296v12.4102h-1.9948c-0.0043,0-0.0078-0.0024-0.0121-0.0024   s-0.0078,0.0024-0.0121,0.0024h-9.3284c-0.0043,0-0.0078-0.0024-0.0121-0.0024s-0.0078,0.0024-0.0121,0.0024h-2.6871V34.7204z    M15.9249,37.0807c-0.6514,0-1.1807-0.5293-1.1807-1.1802s0.5293-1.1802,1.1807-1.1802c0.6504,0,1.1797,0.5293,1.1797,1.1802   S16.5753,37.0807,15.9249,37.0807z"/></g><text x="0" y="81" fill="#000000" font-size="5px" font-weight="bold" font-family="'Helvetica Neue', Helvetica, Arial-Unicode, Arial, Sans-serif">Created by ProSymbols</text><text x="0" y="86" fill="#000000" font-size="5px" font-weight="bold" font-family="'Helvetica Neue', Helvetica, Arial-Unicode, Arial, Sans-serif">from the Noun Project</text></svg>