<svg xmlns="http://www.w3.org/2000/svg" version="1.1" viewBox="-5.0 -10.0 110.0 135.0">
 <path d="m80.734 54.836c0-0.82813 0.67188-1.5 1.5-1.5s1.5 0.67187 1.5 1.5v36.117c0 1.6641-0.67969 3.1797-1.7734 4.2734s-2.6094 1.7734-4.2734 1.7734h-39.145c-0.82812 0-1.5-0.67188-1.5-1.5s0.67188-1.5 1.5-1.5h39.145c0.83594 0 1.6016-0.34375 2.1523-0.89453 0.55469-0.55469 0.89453-1.3164 0.89453-2.1523zm-33.328 32.352c-0.82812 0-1.5-0.67188-1.5-1.5s0.67188-1.5 1.5-1.5h26.781c0.82812 0 1.5 0.67188 1.5 1.5s-0.67188 1.5-1.5 1.5zm0-10c-0.82812 0-1.5-0.67188-1.5-1.5s0.67188-1.5 1.5-1.5h13.391c0.82812 0 1.5 0.67188 1.5 1.5s-0.67188 1.5-1.5 1.5zm0-15.004c-0.82812 0-1.5-0.67188-1.5-1.5s0.67188-1.5 1.5-1.5h26.781c0.82812 0 1.5 0.67188 1.5 1.5s-0.67188 1.5-1.5 1.5zm0-10c-0.82812 0-1.5-0.67188-1.5-1.5s0.67188-1.5 1.5-1.5h13.391c0.82812 0 1.5 0.67188 1.5 1.5s-0.67188 1.5-1.5 1.5zm0-15c-0.82812 0-1.5-0.67188-1.5-1.5s0.67188-1.5 1.5-1.5h26.781c0.82812 0 1.5 0.67188 1.5 1.5s-0.67188 1.5-1.5 1.5zm0-10c-0.82812 0-1.5-0.67188-1.5-1.5s0.67188-1.5 1.5-1.5h13.391c0.82812 0 1.5 0.67188 1.5 1.5s-0.67188 1.5-1.5 1.5zm-21.594 44.809h14.387c0.82812 0 1.5 0.67187 1.5 1.5v14.387c0 0.82812-0.67188 1.5-1.5 1.5h-14.387c-0.82812 0-1.5-0.67188-1.5-1.5v-14.387c0-0.82813 0.67188-1.5 1.5-1.5zm12.887 3h-11.387v11.387h11.387zm-12.887-28h14.387c0.82812 0 1.5 0.67187 1.5 1.5v14.387c0 0.82812-0.67188 1.5-1.5 1.5h-14.387c-0.82812 0-1.5-0.67188-1.5-1.5v-14.387c0-0.82813 0.67188-1.5 1.5-1.5zm12.887 3h-11.387v11.387h11.387zm-12.887-28h14.387c0.82812 0 1.5 0.67187 1.5 1.5v14.387c0 0.82812-0.67188 1.5-1.5 1.5h-14.387c-0.82812 0-1.5-0.67188-1.5-1.5v-14.387c0-0.82813 0.67188-1.5 1.5-1.5zm12.887 3h-11.387v11.387h11.387zm26.191-18.988v4.5195c0 1.8789-0.76953 3.5898-2.0117 4.832l-0.007812 0.007812c-1.2383 1.2383-2.9492 2.0078-4.8281 2.0078h-16.086c-1.8828 0-3.5977-0.76953-4.8359-2.0117-1.2383-1.2383-2.0117-2.9531-2.0117-4.8359v-4.5195h-12.797c-0.83594 0-1.6016 0.34375-2.1523 0.89453-0.55469 0.55469-0.89453 1.3164-0.89453 2.1523v81.902c0 0.83594 0.34375 1.5977 0.89453 2.1523 0.55469 0.55469 1.3164 0.89453 2.1523 0.89453h5.1602c0.82812 0 1.5 0.67188 1.5 1.5s-0.67188 1.5-1.5 1.5h-5.1602c-1.6641 0-3.1797-0.67969-4.2734-1.7734s-1.7734-2.6094-1.7734-4.2734v-81.902c0-1.6641 0.67969-3.1797 1.7734-4.2734s2.6094-1.7734 4.2734-1.7734h55.371c1.6641 0 3.1797 0.67969 4.2734 1.7734s1.7734 2.6094 1.7734 4.2734v36.117c0 0.82812-0.67188 1.5-1.5 1.5s-1.5-0.67188-1.5-1.5v-36.117c0-0.83594-0.34375-1.5977-0.89453-2.1523-0.55469-0.55469-1.3164-0.89453-2.1523-0.89453zm-26.781 0v4.5195c0 1.0547 0.43359 2.0195 1.1328 2.7148 0.69922 0.69922 1.6602 1.1328 2.7148 1.1328h16.086c1.0625 0 2.0234-0.43359 2.7148-1.125 0.69922-0.69922 1.1328-1.6602 1.1328-2.7227v-4.5195zm-4.9922 88c0.82812 0 1.5 0.67188 1.5 1.5s-0.67188 1.5-1.5 1.5h-0.22266c-0.82812 0-1.5-0.67188-1.5-1.5s0.67188-1.5 1.5-1.5z"/>
<text x="0.0" y="117.5" font-size="5.0" font-weight="bold" font-family="Arbeit Regular, Helvetica, Arial-Unicode, Arial, Sans-serif" fill="#000000">Created by Kartika Sholehatin</text><text x="0.0" y="122.5" font-size="5.0" font-weight="bold" font-family="Arbeit Regular, Helvetica, Arial-Unicode, Arial, Sans-serif" fill="#000000">from Noun Project</text></svg>