<svg xmlns="http://www.w3.org/2000/svg" version="1.1" viewBox="-5.0 -10.0 110.0 135.0">
 <path d="m85.645 13.637h-64.582c-2.875 0-5.207 2.332-5.207 5.207v1.4492h-0.29297c-1.6992-0.011719-3.332 0.65625-4.5352 1.8516-1.2031 1.1953-1.8828 2.8242-1.8828 4.5234v53.32c0 3.5195 2.8477 6.3711 6.3672 6.375h62.32c3.5195-0.003906 6.3672-2.8555 6.3672-6.375v-0.28125h1.4492-0.003907c1.3828 0 2.707-0.54688 3.6836-1.5234 0.97656-0.97656 1.5273-2.3008 1.5273-3.6836v-55.656c0-1.3828-0.55078-2.707-1.5273-3.6836-0.97656-0.97656-2.3008-1.5234-3.6836-1.5234zm-64.582 2.082h64.582c1.7266 0 3.125 1.3984 3.125 3.125v7.0117h-19.852l-3.7305-2.1445v-0.003907c-0.15625-0.09375-0.33594-0.14453-0.51953-0.14453h-22.668c-0.18359 0-0.36328 0.050781-0.51953 0.14453l-3.7305 2.1445-19.863 0.003907v-7.0117c0-1.7266 1.3984-3.125 3.125-3.125zm61.105 64.27c0 2.3672-1.918 4.2891-4.2812 4.293h-62.375c-2.3672-0.003906-4.2812-1.9258-4.2812-4.293v-53.32c0-2.3672 1.9141-4.2891 4.2812-4.293h0.29297v52.082h-0.003907c0 1.3828 0.55078 2.707 1.5273 3.6836s2.3008 1.5273 3.6836 1.5273h61.102zm3.5312-2.3633h-64.586c-1.7227 0-3.125-1.3984-3.125-3.125v-46.562h20.031c0.18359 0 0.36328-0.046875 0.52344-0.13672l3.7305-2.1562h22.113l3.7305 2.1562h-0.003907c0.16016 0.089844 0.33984 0.13672 0.52344 0.13672h20.133v32.219h-23.875c-0.57422 0-1.0391 0.46484-1.0391 1.043 0 0.57422 0.46484 1.0391 1.0391 1.0391h23.875v12.262c0 1.7266-1.3984 3.125-3.125 3.125zm-31.992-40.52h-22.918 0.003907c-2.3008 0-4.168 1.8633-4.168 4.1641v22.918c0 1.1055 0.4375 2.1641 1.2188 2.9453s1.8438 1.2227 2.9492 1.2227h22.918-0.003907c1.1055 0 2.168-0.44141 2.9492-1.2227s1.2188-1.8398 1.2188-2.9453v-22.918c0-1.1055-0.4375-2.1641-1.2188-2.9453s-1.8438-1.2188-2.9492-1.2188zm-22.918 2.082h22.918c0.55469 0 1.082 0.21875 1.4727 0.60938 0.39062 0.39062 0.61328 0.92188 0.61328 1.4727v16.023l-3.0195-5.207-0.003907-0.003907c-0.6875-1.1914-1.9609-1.9258-3.3359-1.9258-1.3789 0-2.6523 0.73438-3.3398 1.9258l-1.5195 2.6445-3.875-6.707c-0.6875-1.1875-1.957-1.918-3.3281-1.918-1.375 0-2.6445 0.73047-3.3281 1.918l-5.3438 9.2734v-16.023c0-1.1484 0.92969-2.082 2.082-2.082zm22.918 27.082h-22.918 0.003907c-1.1523 0-2.0859-0.92969-2.0859-2.082v-2.7305l7.1445-12.395h0.003907c0.31641-0.53906 0.89844-0.87109 1.5234-0.87109 0.62891 0 1.2109 0.33203 1.5273 0.87109l4.4688 7.75-2.2305 3.875c-0.13672 0.23828-0.17969 0.52344-0.10938 0.79297 0.074219 0.26562 0.24609 0.49609 0.48438 0.63281 0.24219 0.14062 0.52734 0.17969 0.79688 0.10547 0.26562-0.070312 0.49219-0.25 0.63281-0.48828l4.9688-8.6055c0.30859-0.55078 0.89453-0.89062 1.5312-0.88672 0.63281 0 1.2148 0.33984 1.5312 0.88672l4.8242 8.332v2.7305h-0.003907c0.007813 0.55859-0.21094 1.0938-0.60547 1.4922-0.39453 0.39453-0.92969 0.61328-1.4883 0.61328zm10.145-28.125h0.003907c0-0.57422 0.46484-1.0391 1.0391-1.0391h14.117c0.57422 0 1.0391 0.46484 1.0391 1.0391 0 0.57812-0.46484 1.043-1.0391 1.043h-14.117c-0.57422 0-1.0391-0.46484-1.0391-1.043zm0 4.8633 0.003907 0.003907c0-0.57812 0.46484-1.043 1.0391-1.043h7.0547c0.57422 0 1.0391 0.46484 1.0391 1.043 0 0.57422-0.46484 1.0391-1.0391 1.0391h-7.0547c-0.57422 0-1.0391-0.46484-1.0391-1.0391zm0 4.8633 0.003907 0.003906c0-0.57422 0.46484-1.043 1.0391-1.043h14.117c0.57422 0 1.0391 0.46875 1.0391 1.043s-0.46484 1.043-1.0391 1.043h-14.117c-0.55859 0-1.0195-0.44141-1.0391-1zm9.1445 4.8633 0.003906 0.003906c0 0.27734-0.10938 0.54297-0.30469 0.73828-0.19531 0.19531-0.46094 0.30469-0.73828 0.30469h-7.0625c-0.57422 0-1.0391-0.46484-1.0391-1.043 0-0.57422 0.46484-1.0391 1.0391-1.0391h7.0625c0.27734 0 0.54297 0.10938 0.73828 0.30469 0.19531 0.19531 0.30469 0.46094 0.30469 0.73438zm-28.977-8.2656c0-0.57422 0.46875-1.043 1.043-1.043h4.9375c0.57422 0 1.043 0.46875 1.043 1.043s-0.46875 1.043-1.043 1.043h-4.9375c-0.57422 0-1.043-0.46875-1.043-1.043z"/>
<text x="0.0" y="117.5" font-size="5.0" font-weight="bold" font-family="Arbeit Regular, Helvetica, Arial-Unicode, Arial, Sans-serif" fill="#000000">Created by Dierys Design</text><text x="0.0" y="122.5" font-size="5.0" font-weight="bold" font-family="Arbeit Regular, Helvetica, Arial-Unicode, Arial, Sans-serif" fill="#000000">from Noun Project</text></svg>